<?xml version="1.0" encoding="utf-8"?>
<!-- Generated by IcoMoon.io -->
<svg version="1.1" xmlns="http://www.w3.org/2000/svg" xmlns:xlink="http://www.w3.org/1999/xlink" width="752" height="32" viewBox="0 0 752 32">
<svg id="icon-logo" width="45" height="45" viewBox="0 0 32 32" x="0" y="0">
<path fill="#ffdc68" d="M16.012 29.311h15.988v2.665h-15.988z"></path>
<path fill="#fff2c6" d="M16.012 0c-8.83 0-15.988 7.158-15.988 15.988s7.158 15.988 15.988 15.988c8.83 0 15.988-7.158 15.988-15.988-0.010-8.826-7.162-15.978-15.988-15.988zM16.012 29.311c-7.358 0-13.323-5.965-13.323-13.323s5.965-13.323 13.323-13.323c7.358 0 13.323 5.965 13.323 13.323-0.008 7.355-5.968 13.315-13.323 13.323z"></path>
<path fill="#eebb5c" d="M16.012 1.332c-8.094 0-14.655 6.561-14.655 14.655s6.561 14.655 14.655 14.655c8.094 0 14.655-6.561 14.655-14.655-0.009-8.090-6.565-14.646-14.655-14.655zM5.242 12.488c0.568-1.75 2.447-2.707 4.197-2.139s2.707 2.447 2.139 4.197c-0.568 1.75-2.447 2.707-4.197 2.139-0-0-0-0-0-0-1.748-0.57-2.704-2.448-2.139-4.197zM14.008 24.412c-1.081 1.488-3.164 1.818-4.652 0.736s-1.818-3.164-0.737-4.652c1.081-1.488 3.164-1.818 4.652-0.737 0.715 0.519 1.194 1.301 1.332 2.173s-0.075 1.765-0.595 2.479zM12.682 7.994c0-1.84 1.491-3.331 3.331-3.331s3.331 1.491 3.331 3.331c0 1.84-1.491 3.331-3.331 3.331-1.839-0.002-3.329-1.492-3.331-3.331zM22.669 25.15c-1.488 1.081-3.571 0.751-4.652-0.737s-0.751-3.571 0.737-4.652c1.488-1.081 3.571-0.751 4.652 0.737 1.079 1.489 0.749 3.57-0.737 4.653zM24.644 16.686c-1.75 0.568-3.629-0.389-4.197-2.139s0.389-3.629 2.138-4.197c1.75-0.569 3.629 0.389 4.197 2.138 0 0 0 0 0 0 0.568 1.749-0.389 3.628-2.139 4.197z"></path>
<path fill="#ffdc68" d="M18.677 15.988c0 1.472-1.193 2.665-2.665 2.665s-2.665-1.193-2.665-2.665 1.193-2.665 2.665-2.665c1.472 0 2.665 1.193 2.665 2.665z"></path>
</svg>
</svg>
