<svg xmlns="http://www.w3.org/2000/svg" xmlns:xlink="http://www.w3.org/1999/xlink" width="752" height="32"><svg id="icon-logo" width="45" height="45" viewBox="0 0 32 32" x="0" y="0"><path fill="#ffdc68" d="M16.012 29.311H32v2.665H16.012z"/><path fill="#fff2c6" d="M16.012 0C7.182 0 .024 7.158.024 15.988s7.158 15.988 15.988 15.988c8.83 0 15.988-7.158 15.988-15.988C31.99 7.162 24.838.01 16.012 0zm0 29.311c-7.358 0-13.323-5.965-13.323-13.323S8.654 2.665 16.012 2.665c7.358 0 13.323 5.965 13.323 13.323-.008 7.355-5.968 13.315-13.323 13.323z"/><path fill="#eebb5c" d="M16.012 1.332c-8.094 0-14.655 6.561-14.655 14.655s6.561 14.655 14.655 14.655 14.655-6.561 14.655-14.655c-.009-8.09-6.565-14.646-14.655-14.655zM5.242 12.488a3.33 3.33 0 112.139 4.197 3.336 3.336 0 01-2.139-4.197zm8.766 11.924a3.33 3.33 0 11-5.388-3.915 3.33 3.33 0 015.388 3.914zM12.682 7.994a3.33 3.33 0 116.661 0 3.33 3.33 0 01-6.661 0zm9.987 17.156a3.33 3.33 0 11-3.915-5.392 3.33 3.33 0 013.915 5.393zm1.975-8.464a3.33 3.33 0 112.138-4.198 3.331 3.331 0 01-2.139 4.197z"/><path fill="#ffdc68" d="M18.677 15.988a2.665 2.665 0 11-5.33 0 2.665 2.665 0 015.33 0z"/></svg></svg>